<svg width="231" height="231" viewBox="0 0 231 231" fill="none" xmlns="http://www.w3.org/2000/svg">
<path d="M199.313 108.716L167.292 44.6753C164.901 39.8852 161.22 35.8577 156.664 33.0461C152.108 30.2345 146.857 28.7504 141.503 28.7609H88.5835C83.2297 28.7504 77.9792 30.2345 73.423 33.0461C68.8669 35.8577 65.186 39.8852 62.7946 44.6753L30.7742 108.716C29.4387 111.396 28.7492 114.351 28.7609 117.344V172.565C28.7609 180.193 31.791 187.509 37.1848 192.902C42.5785 198.296 49.8939 201.326 57.5218 201.326H172.565C180.193 201.326 187.509 198.296 192.902 192.902C198.296 187.509 201.326 180.193 201.326 172.565V117.344C201.338 114.351 200.648 111.396 199.313 108.716ZM79.9552 53.2077C80.7592 51.6121 81.9931 50.2729 83.5177 49.3412C85.0422 48.4095 86.7968 47.9224 88.5835 47.9348H141.503C143.29 47.9224 145.045 48.4095 146.569 49.3412C148.094 50.2729 149.328 51.6121 150.132 53.2077L176.208 105.457H153.391C150.849 105.457 148.41 106.467 146.612 108.265C144.814 110.062 143.804 112.501 143.804 115.044V134.217C143.804 136.76 142.794 139.199 140.996 140.996C139.199 142.794 136.76 143.804 134.217 143.804H95.8696C93.327 143.804 90.8885 142.794 89.0906 140.996C87.2927 139.199 86.2826 136.76 86.2826 134.217V115.044C86.2826 112.501 85.2726 110.062 83.4747 108.265C81.6768 106.467 79.2383 105.457 76.6957 105.457H53.8787L79.9552 53.2077Z" fill="black"/>
</svg>
