<svg width="231" height="231" viewBox="0 0 231 231" fill="none" xmlns="http://www.w3.org/2000/svg">
<path d="M100.699 0L86.3543 34.1401C83.4854 35.0008 80.9034 36.4352 78.3214 37.8697L44.1813 23.5251L23.5251 44.1813L37.8697 78.3214C36.4352 81.1903 35.2876 83.4854 34.1401 86.3543L0 100.699V129.388L34.1401 143.733C35.2876 146.602 36.4352 148.897 37.8697 151.766L23.5251 185.906L44.1813 206.562L78.3214 192.217C80.9034 193.365 83.4854 194.799 86.3543 195.947L100.699 230.087H129.388L143.733 195.947C146.315 194.799 149.184 193.652 151.766 192.217L185.906 206.562L206.562 185.906L192.217 151.766C193.365 149.184 194.799 146.315 195.947 143.733L230.087 129.388V100.699L195.947 86.3543C195.086 83.7723 193.652 80.9034 192.217 78.3214L206.562 44.1813L185.906 23.5251L151.766 37.8697C149.184 36.7221 146.315 35.2877 143.733 34.1401L129.388 0L100.699 0ZM115.043 71.7229C138.855 71.7229 158.077 90.9446 158.077 114.757C158.077 138.569 138.855 157.79 115.043 157.79C91.2315 157.79 72.0098 138.569 72.0098 114.757C72.0098 90.9446 91.2315 71.7229 115.043 71.7229Z" fill="black"/>
</svg>
