<svg width="231" height="173" viewBox="0 0 231 173" fill="none" xmlns="http://www.w3.org/2000/svg">
<path d="M178.317 129.424H188.384C191.26 129.424 194.136 126.548 194.136 123.672V20.1326C194.136 17.2565 191.26 14.3804 188.384 14.3804H178.317C175.441 14.3804 172.565 17.2565 172.565 20.1326V123.672C172.565 126.548 175.441 129.424 178.317 129.424ZM92.0348 129.424H102.101C104.977 129.424 107.853 126.548 107.853 123.672V34.513C107.853 31.637 104.977 28.7609 102.101 28.7609H92.0348C89.1587 28.7609 86.2826 31.637 86.2826 34.513V123.672C86.2826 126.548 89.1587 129.424 92.0348 129.424ZM135.176 129.424H145.242C148.118 129.424 150.995 126.548 150.995 123.672V63.2739C150.995 60.3978 148.118 57.5217 145.242 57.5217H135.176C132.3 57.5217 129.424 60.3978 129.424 63.2739V123.672C129.424 126.548 132.3 129.424 135.176 129.424ZM222.897 150.995H21.5707V7.19022C21.5707 3.21762 18.353 0 14.3804 0H7.19022C3.21762 0 0 3.21762 0 7.19022V158.185C0 166.125 6.43974 172.565 14.3804 172.565H222.897C226.869 172.565 230.087 169.348 230.087 165.375V158.185C230.087 154.212 226.869 150.995 222.897 150.995ZM48.8935 129.424H58.9598C61.8359 129.424 64.712 126.548 64.712 123.672V92.0348C64.712 89.1587 61.8359 86.2826 58.9598 86.2826H48.8935C46.0174 86.2826 43.1413 89.1587 43.1413 92.0348V123.672C43.1413 126.548 46.0174 129.424 48.8935 129.424Z" fill="black"/>
</svg>
